<?xml version="1.0" encoding="UTF-8" standalone="no"?>
<svg
   xmlns:dc="http://purl.org/dc/elements/1.1/"
   xmlns:cc="http://creativecommons.org/ns#"
   xmlns:rdf="http://www.w3.org/1999/02/22-rdf-syntax-ns#"
   xmlns:svg="http://www.w3.org/2000/svg"
   xmlns="http://www.w3.org/2000/svg"
   xmlns:sodipodi="http://sodipodi.sourceforge.net/DTD/sodipodi-0.dtd"
   xmlns:inkscape="http://www.inkscape.org/namespaces/inkscape"
   xml:space="preserve"
   enable-background="new 0 0 30 30"
   viewBox="0 0 30 30"
   height="30px"
   width="30px"
   y="0px"
   x="0px"
   inkscape:version="1.0 (4035a4fb49, 2020-05-01)"
   sodipodi:docname="Bonsai.JonsUtils.svg"
   id="svg814"
   version="1.0"><metadata
   id="metadata4548"><rdf:RDF><cc:Work
       rdf:about=""><dc:format>image/svg+xml</dc:format><dc:type
         rdf:resource="http://purl.org/dc/dcmitype/StillImage" /><dc:title></dc:title></cc:Work></rdf:RDF></metadata><defs
   id="defs4546"><rect
     id="rect1142"
     height="51.247058"
     width="41.647058"
     y="-15.105882"
     x="-36.847058" /><marker
     inkscape:stockid="Arrow1Lstart"
     orient="auto"
     refY="0.0"
     refX="0.0"
     id="marker5637"
     style="overflow:visible"
     inkscape:isstock="true"><path
       id="path5635"
       d="M 0.0,0.0 L 5.0,-5.0 L -12.5,0.0 L 5.0,5.0 L 0.0,0.0 z "
       style="fill-rule:evenodd;stroke:#000000;stroke-width:1pt;stroke-opacity:1;fill:#000000;fill-opacity:1"
       transform="scale(0.8) translate(12.5,0)" /></marker><marker
     inkscape:stockid="Arrow1Lstart"
     orient="auto"
     refY="0.0"
     refX="0.0"
     id="marker5633"
     style="overflow:visible"
     inkscape:isstock="true"><path
       id="path5631"
       d="M 0.0,0.0 L 5.0,-5.0 L -12.5,0.0 L 5.0,5.0 L 0.0,0.0 z "
       style="fill-rule:evenodd;stroke:#000000;stroke-width:1pt;stroke-opacity:1;fill:#000000;fill-opacity:1"
       transform="scale(0.8) translate(12.5,0)" /></marker><marker
     inkscape:stockid="Arrow1Lstart"
     orient="auto"
     refY="0.0"
     refX="0.0"
     id="marker5629"
     style="overflow:visible"
     inkscape:isstock="true"><path
       id="path5627"
       d="M 0.0,0.0 L 5.0,-5.0 L -12.5,0.0 L 5.0,5.0 L 0.0,0.0 z "
       style="fill-rule:evenodd;stroke:#000000;stroke-width:1pt;stroke-opacity:1;fill:#000000;fill-opacity:1"
       transform="scale(0.8) translate(12.5,0)" /></marker><marker
     inkscape:stockid="Arrow1Lstart"
     orient="auto"
     refY="0.0"
     refX="0.0"
     id="marker5625"
     style="overflow:visible"
     inkscape:isstock="true"><path
       id="path5623"
       d="M 0.0,0.0 L 5.0,-5.0 L -12.5,0.0 L 5.0,5.0 L 0.0,0.0 z "
       style="fill-rule:evenodd;stroke:#000000;stroke-width:1pt;stroke-opacity:1;fill:#000000;fill-opacity:1"
       transform="scale(0.8) translate(12.5,0)" /></marker><marker
     inkscape:stockid="Arrow1Lstart"
     orient="auto"
     refY="0.0"
     refX="0.0"
     id="marker5621"
     style="overflow:visible"
     inkscape:isstock="true"><path
       id="path5619"
       d="M 0.0,0.0 L 5.0,-5.0 L -12.5,0.0 L 5.0,5.0 L 0.0,0.0 z "
       style="fill-rule:evenodd;stroke:#000000;stroke-width:1pt;stroke-opacity:1;fill:#000000;fill-opacity:1"
       transform="scale(0.8) translate(12.5,0)" /></marker><marker
     inkscape:stockid="Arrow1Lstart"
     orient="auto"
     refY="0.0"
     refX="0.0"
     id="marker5617"
     style="overflow:visible"
     inkscape:isstock="true"><path
       id="path5615"
       d="M 0.0,0.0 L 5.0,-5.0 L -12.5,0.0 L 5.0,5.0 L 0.0,0.0 z "
       style="fill-rule:evenodd;stroke:#000000;stroke-width:1pt;stroke-opacity:1;fill:#000000;fill-opacity:1"
       transform="scale(0.8) translate(12.5,0)" /></marker><marker
     inkscape:stockid="Arrow1Lstart"
     orient="auto"
     refY="0.0"
     refX="0.0"
     id="marker5613"
     style="overflow:visible"
     inkscape:isstock="true"><path
       id="path5611"
       d="M 0.0,0.0 L 5.0,-5.0 L -12.5,0.0 L 5.0,5.0 L 0.0,0.0 z "
       style="fill-rule:evenodd;stroke:#000000;stroke-width:1pt;stroke-opacity:1;fill:#000000;fill-opacity:1"
       transform="scale(0.8) translate(12.5,0)" /></marker><marker
     inkscape:stockid="Arrow1Lstart"
     orient="auto"
     refY="0.0"
     refX="0.0"
     id="marker5609"
     style="overflow:visible"
     inkscape:isstock="true"><path
       id="path5607"
       d="M 0.0,0.0 L 5.0,-5.0 L -12.5,0.0 L 5.0,5.0 L 0.0,0.0 z "
       style="fill-rule:evenodd;stroke:#000000;stroke-width:1pt;stroke-opacity:1;fill:#000000;fill-opacity:1"
       transform="scale(0.8) translate(12.5,0)" /></marker><marker
     inkscape:stockid="Arrow1Lstart"
     orient="auto"
     refY="0.0"
     refX="0.0"
     id="marker5605"
     style="overflow:visible"
     inkscape:isstock="true"><path
       id="path5603"
       d="M 0.0,0.0 L 5.0,-5.0 L -12.5,0.0 L 5.0,5.0 L 0.0,0.0 z "
       style="fill-rule:evenodd;stroke:#000000;stroke-width:1pt;stroke-opacity:1;fill:#000000;fill-opacity:1"
       transform="scale(0.8) translate(12.5,0)" /></marker><marker
     inkscape:stockid="Arrow1Lstart"
     orient="auto"
     refY="0.0"
     refX="0.0"
     id="marker5601"
     style="overflow:visible"
     inkscape:isstock="true"><path
       id="path5599"
       d="M 0.0,0.0 L 5.0,-5.0 L -12.5,0.0 L 5.0,5.0 L 0.0,0.0 z "
       style="fill-rule:evenodd;stroke:#000000;stroke-width:1pt;stroke-opacity:1;fill:#000000;fill-opacity:1"
       transform="scale(0.8) translate(12.5,0)" /></marker><marker
     inkscape:stockid="Arrow1Lstart"
     orient="auto"
     refY="0.0"
     refX="0.0"
     id="marker5597"
     style="overflow:visible"
     inkscape:isstock="true"><path
       id="path5595"
       d="M 0.0,0.0 L 5.0,-5.0 L -12.5,0.0 L 5.0,5.0 L 0.0,0.0 z "
       style="fill-rule:evenodd;stroke:#000000;stroke-width:1pt;stroke-opacity:1;fill:#000000;fill-opacity:1"
       transform="scale(0.8) translate(12.5,0)" /></marker><marker
     inkscape:stockid="Arrow1Lstart"
     orient="auto"
     refY="0.0"
     refX="0.0"
     id="marker5593"
     style="overflow:visible"
     inkscape:isstock="true"><path
       id="path5591"
       d="M 0.0,0.0 L 5.0,-5.0 L -12.5,0.0 L 5.0,5.0 L 0.0,0.0 z "
       style="fill-rule:evenodd;stroke:#000000;stroke-width:1pt;stroke-opacity:1;fill:#000000;fill-opacity:1"
       transform="scale(0.8) translate(12.5,0)" /></marker><marker
     inkscape:stockid="Arrow1Lstart"
     orient="auto"
     refY="0.0"
     refX="0.0"
     id="marker5589"
     style="overflow:visible"
     inkscape:isstock="true"><path
       id="path5587"
       d="M 0.0,0.0 L 5.0,-5.0 L -12.5,0.0 L 5.0,5.0 L 0.0,0.0 z "
       style="fill-rule:evenodd;stroke:#000000;stroke-width:1pt;stroke-opacity:1;fill:#000000;fill-opacity:1"
       transform="scale(0.8) translate(12.5,0)" /></marker><marker
     inkscape:stockid="Arrow1Lstart"
     orient="auto"
     refY="0.0"
     refX="0.0"
     id="marker5585"
     style="overflow:visible"
     inkscape:isstock="true"><path
       id="path5583"
       d="M 0.0,0.0 L 5.0,-5.0 L -12.5,0.0 L 5.0,5.0 L 0.0,0.0 z "
       style="fill-rule:evenodd;stroke:#000000;stroke-width:1pt;stroke-opacity:1;fill:#000000;fill-opacity:1"
       transform="scale(0.8) translate(12.5,0)" /></marker><marker
     inkscape:stockid="Arrow1Lstart"
     orient="auto"
     refY="0.0"
     refX="0.0"
     id="marker5581"
     style="overflow:visible"
     inkscape:isstock="true"><path
       id="path5579"
       d="M 0.0,0.0 L 5.0,-5.0 L -12.5,0.0 L 5.0,5.0 L 0.0,0.0 z "
       style="fill-rule:evenodd;stroke:#000000;stroke-width:1pt;stroke-opacity:1;fill:#000000;fill-opacity:1"
       transform="scale(0.8) translate(12.5,0)" /></marker><marker
     inkscape:stockid="Arrow1Lstart"
     orient="auto"
     refY="0.0"
     refX="0.0"
     id="marker5577"
     style="overflow:visible"
     inkscape:isstock="true"><path
       id="path5575"
       d="M 0.0,0.0 L 5.0,-5.0 L -12.5,0.0 L 5.0,5.0 L 0.0,0.0 z "
       style="fill-rule:evenodd;stroke:#000000;stroke-width:1pt;stroke-opacity:1;fill:#000000;fill-opacity:1"
       transform="scale(0.8) translate(12.5,0)" /></marker><marker
     inkscape:stockid="Arrow1Lstart"
     orient="auto"
     refY="0.0"
     refX="0.0"
     id="marker5573"
     style="overflow:visible"
     inkscape:isstock="true"><path
       id="path5571"
       d="M 0.0,0.0 L 5.0,-5.0 L -12.5,0.0 L 5.0,5.0 L 0.0,0.0 z "
       style="fill-rule:evenodd;stroke:#000000;stroke-width:1pt;stroke-opacity:1;fill:#000000;fill-opacity:1"
       transform="scale(0.8) translate(12.5,0)" /></marker><marker
     inkscape:stockid="Arrow1Lstart"
     orient="auto"
     refY="0.0"
     refX="0.0"
     id="marker5569"
     style="overflow:visible"
     inkscape:isstock="true"><path
       id="path5567"
       d="M 0.0,0.0 L 5.0,-5.0 L -12.5,0.0 L 5.0,5.0 L 0.0,0.0 z "
       style="fill-rule:evenodd;stroke:#000000;stroke-width:1pt;stroke-opacity:1;fill:#000000;fill-opacity:1"
       transform="scale(0.8) translate(12.5,0)" /></marker><marker
     inkscape:stockid="Arrow1Lstart"
     orient="auto"
     refY="0.0"
     refX="0.0"
     id="marker5565"
     style="overflow:visible"
     inkscape:isstock="true"><path
       id="path5563"
       d="M 0.0,0.0 L 5.0,-5.0 L -12.5,0.0 L 5.0,5.0 L 0.0,0.0 z "
       style="fill-rule:evenodd;stroke:#000000;stroke-width:1pt;stroke-opacity:1;fill:#000000;fill-opacity:1"
       transform="scale(0.8) translate(12.5,0)" /></marker><marker
     inkscape:stockid="Arrow1Lstart"
     orient="auto"
     refY="0.0"
     refX="0.0"
     id="marker5561"
     style="overflow:visible"
     inkscape:isstock="true"><path
       id="path5559"
       d="M 0.0,0.0 L 5.0,-5.0 L -12.5,0.0 L 5.0,5.0 L 0.0,0.0 z "
       style="fill-rule:evenodd;stroke:#000000;stroke-width:1pt;stroke-opacity:1;fill:#000000;fill-opacity:1"
       transform="scale(0.8) translate(12.5,0)" /></marker><marker
     inkscape:stockid="Arrow1Lstart"
     orient="auto"
     refY="0.0"
     refX="0.0"
     id="marker5557"
     style="overflow:visible"
     inkscape:isstock="true"><path
       id="path5555"
       d="M 0.0,0.0 L 5.0,-5.0 L -12.5,0.0 L 5.0,5.0 L 0.0,0.0 z "
       style="fill-rule:evenodd;stroke:#000000;stroke-width:1pt;stroke-opacity:1;fill:#000000;fill-opacity:1"
       transform="scale(0.8) translate(12.5,0)" /></marker><marker
     inkscape:stockid="Arrow1Lstart"
     orient="auto"
     refY="0.0"
     refX="0.0"
     id="marker5553"
     style="overflow:visible"
     inkscape:isstock="true"><path
       id="path5551"
       d="M 0.0,0.0 L 5.0,-5.0 L -12.5,0.0 L 5.0,5.0 L 0.0,0.0 z "
       style="fill-rule:evenodd;stroke:#000000;stroke-width:1pt;stroke-opacity:1;fill:#000000;fill-opacity:1"
       transform="scale(0.8) translate(12.5,0)" /></marker><marker
     inkscape:stockid="Arrow1Lstart"
     orient="auto"
     refY="0.0"
     refX="0.0"
     id="marker5549"
     style="overflow:visible"
     inkscape:isstock="true"><path
       id="path5547"
       d="M 0.0,0.0 L 5.0,-5.0 L -12.5,0.0 L 5.0,5.0 L 0.0,0.0 z "
       style="fill-rule:evenodd;stroke:#000000;stroke-width:1pt;stroke-opacity:1;fill:#000000;fill-opacity:1"
       transform="scale(0.8) translate(12.5,0)" /></marker><marker
     inkscape:stockid="Arrow1Lstart"
     orient="auto"
     refY="0.0"
     refX="0.0"
     id="marker5545"
     style="overflow:visible"
     inkscape:isstock="true"><path
       id="path5543"
       d="M 0.0,0.0 L 5.0,-5.0 L -12.5,0.0 L 5.0,5.0 L 0.0,0.0 z "
       style="fill-rule:evenodd;stroke:#000000;stroke-width:1pt;stroke-opacity:1;fill:#000000;fill-opacity:1"
       transform="scale(0.8) translate(12.5,0)" /></marker><marker
     inkscape:stockid="Arrow1Lstart"
     orient="auto"
     refY="0.0"
     refX="0.0"
     id="marker5541"
     style="overflow:visible"
     inkscape:isstock="true"><path
       id="path5539"
       d="M 0.0,0.0 L 5.0,-5.0 L -12.5,0.0 L 5.0,5.0 L 0.0,0.0 z "
       style="fill-rule:evenodd;stroke:#000000;stroke-width:1pt;stroke-opacity:1;fill:#000000;fill-opacity:1"
       transform="scale(0.8) translate(12.5,0)" /></marker><marker
     inkscape:stockid="Arrow1Lstart"
     orient="auto"
     refY="0.0"
     refX="0.0"
     id="marker5537"
     style="overflow:visible"
     inkscape:isstock="true"><path
       id="path5535"
       d="M 0.0,0.0 L 5.0,-5.0 L -12.5,0.0 L 5.0,5.0 L 0.0,0.0 z "
       style="fill-rule:evenodd;stroke:#000000;stroke-width:1pt;stroke-opacity:1;fill:#000000;fill-opacity:1"
       transform="scale(0.8) translate(12.5,0)" /></marker><marker
     inkscape:stockid="Arrow1Lstart"
     orient="auto"
     refY="0.0"
     refX="0.0"
     id="marker5533"
     style="overflow:visible"
     inkscape:isstock="true"><path
       id="path5531"
       d="M 0.0,0.0 L 5.0,-5.0 L -12.5,0.0 L 5.0,5.0 L 0.0,0.0 z "
       style="fill-rule:evenodd;stroke:#000000;stroke-width:1pt;stroke-opacity:1;fill:#000000;fill-opacity:1"
       transform="scale(0.8) translate(12.5,0)" /></marker><marker
     inkscape:stockid="Arrow1Lstart"
     orient="auto"
     refY="0.0"
     refX="0.0"
     id="marker5529"
     style="overflow:visible"
     inkscape:isstock="true"><path
       id="path5527"
       d="M 0.0,0.0 L 5.0,-5.0 L -12.5,0.0 L 5.0,5.0 L 0.0,0.0 z "
       style="fill-rule:evenodd;stroke:#000000;stroke-width:1pt;stroke-opacity:1;fill:#000000;fill-opacity:1"
       transform="scale(0.8) translate(12.5,0)" /></marker><marker
     inkscape:stockid="Arrow1Lstart"
     orient="auto"
     refY="0.0"
     refX="0.0"
     id="marker5525"
     style="overflow:visible"
     inkscape:isstock="true"><path
       id="path5523"
       d="M 0.0,0.0 L 5.0,-5.0 L -12.5,0.0 L 5.0,5.0 L 0.0,0.0 z "
       style="fill-rule:evenodd;stroke:#000000;stroke-width:1pt;stroke-opacity:1;fill:#000000;fill-opacity:1"
       transform="scale(0.8) translate(12.5,0)" /></marker><marker
     inkscape:stockid="Arrow1Lstart"
     orient="auto"
     refY="0.0"
     refX="0.0"
     id="marker5521"
     style="overflow:visible"
     inkscape:isstock="true"><path
       id="path5519"
       d="M 0.0,0.0 L 5.0,-5.0 L -12.5,0.0 L 5.0,5.0 L 0.0,0.0 z "
       style="fill-rule:evenodd;stroke:#000000;stroke-width:1pt;stroke-opacity:1;fill:#000000;fill-opacity:1"
       transform="scale(0.8) translate(12.5,0)" /></marker><marker
     inkscape:stockid="Arrow1Lstart"
     orient="auto"
     refY="0.0"
     refX="0.0"
     id="marker5517"
     style="overflow:visible"
     inkscape:isstock="true"><path
       id="path5515"
       d="M 0.0,0.0 L 5.0,-5.0 L -12.5,0.0 L 5.0,5.0 L 0.0,0.0 z "
       style="fill-rule:evenodd;stroke:#000000;stroke-width:1pt;stroke-opacity:1;fill:#000000;fill-opacity:1"
       transform="scale(0.8) translate(12.5,0)" /></marker><marker
     inkscape:stockid="Arrow1Lstart"
     orient="auto"
     refY="0.0"
     refX="0.0"
     id="marker5513"
     style="overflow:visible"
     inkscape:isstock="true"><path
       id="path5511"
       d="M 0.0,0.0 L 5.0,-5.0 L -12.5,0.0 L 5.0,5.0 L 0.0,0.0 z "
       style="fill-rule:evenodd;stroke:#000000;stroke-width:1pt;stroke-opacity:1;fill:#000000;fill-opacity:1"
       transform="scale(0.8) translate(12.5,0)" /></marker><marker
     inkscape:stockid="Arrow1Lstart"
     orient="auto"
     refY="0.0"
     refX="0.0"
     id="marker5509"
     style="overflow:visible"
     inkscape:isstock="true"><path
       id="path5507"
       d="M 0.0,0.0 L 5.0,-5.0 L -12.5,0.0 L 5.0,5.0 L 0.0,0.0 z "
       style="fill-rule:evenodd;stroke:#000000;stroke-width:1pt;stroke-opacity:1;fill:#000000;fill-opacity:1"
       transform="scale(0.8) translate(12.5,0)" /></marker><marker
     inkscape:stockid="Arrow1Lstart"
     orient="auto"
     refY="0.0"
     refX="0.0"
     id="marker5505"
     style="overflow:visible"
     inkscape:isstock="true"><path
       id="path5503"
       d="M 0.0,0.0 L 5.0,-5.0 L -12.5,0.0 L 5.0,5.0 L 0.0,0.0 z "
       style="fill-rule:evenodd;stroke:#000000;stroke-width:1pt;stroke-opacity:1;fill:#000000;fill-opacity:1"
       transform="scale(0.8) translate(12.5,0)" /></marker><marker
     inkscape:stockid="Arrow1Lstart"
     orient="auto"
     refY="0.0"
     refX="0.0"
     id="marker5501"
     style="overflow:visible"
     inkscape:isstock="true"><path
       id="path5499"
       d="M 0.0,0.0 L 5.0,-5.0 L -12.5,0.0 L 5.0,5.0 L 0.0,0.0 z "
       style="fill-rule:evenodd;stroke:#000000;stroke-width:1pt;stroke-opacity:1;fill:#000000;fill-opacity:1"
       transform="scale(0.8) translate(12.5,0)" /></marker><marker
     inkscape:stockid="Arrow1Lstart"
     orient="auto"
     refY="0.0"
     refX="0.0"
     id="marker5497"
     style="overflow:visible"
     inkscape:isstock="true"><path
       id="path5495"
       d="M 0.0,0.0 L 5.0,-5.0 L -12.5,0.0 L 5.0,5.0 L 0.0,0.0 z "
       style="fill-rule:evenodd;stroke:#000000;stroke-width:1pt;stroke-opacity:1;fill:#000000;fill-opacity:1"
       transform="scale(0.8) translate(12.5,0)" /></marker><marker
     inkscape:stockid="Arrow1Lstart"
     orient="auto"
     refY="0.0"
     refX="0.0"
     id="marker5493"
     style="overflow:visible"
     inkscape:isstock="true"><path
       id="path5491"
       d="M 0.0,0.0 L 5.0,-5.0 L -12.5,0.0 L 5.0,5.0 L 0.0,0.0 z "
       style="fill-rule:evenodd;stroke:#000000;stroke-width:1pt;stroke-opacity:1;fill:#000000;fill-opacity:1"
       transform="scale(0.8) translate(12.5,0)" /></marker><marker
     inkscape:stockid="Arrow1Lstart"
     orient="auto"
     refY="0.0"
     refX="0.0"
     id="marker5489"
     style="overflow:visible"
     inkscape:isstock="true"><path
       id="path5487"
       d="M 0.0,0.0 L 5.0,-5.0 L -12.5,0.0 L 5.0,5.0 L 0.0,0.0 z "
       style="fill-rule:evenodd;stroke:#000000;stroke-width:1pt;stroke-opacity:1;fill:#000000;fill-opacity:1"
       transform="scale(0.8) translate(12.5,0)" /></marker></defs>
<sodipodi:namedview
   inkscape:guide-bbox="true"
   showguides="true"
   inkscape:document-rotation="0"
   inkscape:current-layer="g1153"
   inkscape:window-y="-8"
   inkscape:window-x="-8"
   inkscape:window-height="1017"
   inkscape:window-width="1920"
   inkscape:pageshadow="2"
   inkscape:pageopacity="0"
   inkscape:window-maximized="1"
   guidetolerance="10"
   inkscape:cy="25.588236"
   gridtolerance="10"
   inkscape:cx="10.650283"
   objecttolerance="10"
   borderopacity="1"
   inkscape:zoom="14.166667"
   showgrid="false"
   bordercolor="#666666"
   pagecolor="#ffffff"
   id="namedview7">
	<sodipodi:guide
   id="guide1157"
   orientation="0,-1"
   position="40.658823,-7.9764697" /></sodipodi:namedview>


<g
   id="text4607"
   style="font-style:normal;font-weight:normal;font-size:14.78972054px;line-height:1.25;font-family:sans-serif;letter-spacing:0px;word-spacing:0px;fill:#000000;fill-opacity:1;stroke:none;stroke-width:0.36974299"
   aria-label="JU"><g
     style="font-style:normal;font-weight:normal;font-size:40px;line-height:1.25;font-family:sans-serif;letter-spacing:0px;word-spacing:0px;fill:#000000;fill-opacity:1;stroke:none"
     id="text1138"
     aria-label="JU"><g
       style="fill:#000000;stroke:none;stroke-width:0.37;stroke-miterlimit:4;stroke-dasharray:none"
       id="g1153"><path
         d="M 12.410442,8.2280625 C 10.508177,8.2098406 8.5966847,8.3623987 6.7013363,8.2614469 5.7233877,8.4499041 5.2763478,10.087665 6.3231244,10.494396 c 0.8112734,0.319135 1.6954303,0.149011 2.5419934,0.191589 0.1958589,1.113884 -0.00383,2.25365 0.045219,3.378865 -0.030166,1.834197 -0.1354777,3.675045 -0.6024449,5.448378 C 7.6432097,19.885147 6.9751733,19.19593 6.4378513,18.874854 5.8417272,18.350998 6.208852,17.293031 5.3901234,16.947106 4.7814169,16.552393 3.8073173,16.829852 3.727961,17.620782 c -0.4176336,1.608876 0.8748955,3.084417 2.2184223,3.774341 1.113188,0.704745 2.8450198,1.077572 3.8278474,-0.03768 1.1296283,-1.363009 1.0455983,-3.244088 1.3172423,-4.900328 0.197081,-1.931084 0.22359,-3.875028 0.186485,-5.814407 0.802785,-0.246456 1.871419,0.461624 2.475956,-0.37509 0.772488,-0.8739421 -0.311777,-2.2568234 -1.343472,-2.0395555 z"
         style="font-style:normal;font-variant:normal;font-weight:normal;font-stretch:normal;font-size:40px;font-family:'Comic Sans MS';-inkscape-font-specification:'Comic Sans MS, Normal';font-variant-ligatures:normal;font-variant-caps:normal;font-variant-numeric:normal;font-variant-east-asian:normal;fill:#ffffff;fill-opacity:1;stroke:none;stroke-width:0.341621;stroke-miterlimit:4;stroke-dasharray:none"
         id="path1146" /><path
         d="m 24.474641,8.3236383 c -1.021005,0.090436 -1.244347,1.3245286 -1.117769,2.1535107 -0.07625,2.739698 0.127683,5.710141 -1.407726,8.11072 -1.161041,1.352538 -3.604457,0.578973 -4.042441,-1.07337 -0.743621,-2.121148 -0.30749,-4.403754 -0.433786,-6.599823 -0.01967,-0.812874 0.230075,-2.0065749 -0.696505,-2.4208734 -0.594992,-0.3498956 -1.395329,0.037054 -1.450007,0.7405115 -0.471287,1.7885829 -0.133011,3.6538069 -0.215914,5.4769229 0.03916,2.060189 0.359362,4.457186 2.138252,5.773981 1.996219,1.429977 5.204784,1.330828 6.71096,-0.766701 1.516928,-2.044307 1.619829,-4.715018 1.763697,-7.161009 0.01797,-1.248738 0.07541,-2.544562 -0.201488,-3.7577168 -0.208162,-0.3501584 -0.649472,-0.533203 -1.047273,-0.4761529 z"
         style="font-style:normal;font-variant:normal;font-weight:normal;font-stretch:normal;font-size:40px;font-family:'Comic Sans MS';-inkscape-font-specification:'Comic Sans MS, Normal';font-variant-ligatures:normal;font-variant-caps:normal;font-variant-numeric:normal;font-variant-east-asian:normal;fill:#ffffff;fill-opacity:1;stroke:none;stroke-width:0.341621;stroke-miterlimit:4;stroke-dasharray:none"
         id="path1148" /></g></g><text
     style="fill:black;fill-opacity:1;stroke:none;font-family:sans-serif;font-style:normal;font-weight:normal;font-size:40px;line-height:1.25;letter-spacing:0px;word-spacing:0px;white-space:pre;shape-inside:url(#rect1142);"
     id="text1140"
     xml:space="preserve" /></g></svg>
